<svg width="32" height="32" viewBox="0 0 32 32" fill="none" xmlns="http://www.w3.org/2000/svg">
<g id="ic_clear">
<rect width="32" height="32" rx="16" fill="#EDECE6"/>
<g id="Group 13">
<g id="Union">
<path fill-rule="evenodd" clip-rule="evenodd" d="M21.8775 15.3073C22.2601 15.3073 22.5702 15.6174 22.5702 16C22.5702 16.3825 22.2601 16.6926 21.8775 16.6926H16.6927V21.8775C16.6927 22.2601 16.3826 22.5702 16 22.5702C15.6174 22.5702 15.3073 22.2601 15.3073 21.8775V16.6926L10.1225 16.6926C9.7399 16.6926 9.42978 16.3825 9.42978 16C9.42978 15.6174 9.7399 15.3073 10.1225 15.3073L15.3073 15.3073L15.3073 10.1224C15.3073 9.73986 15.6174 9.42974 16 9.42974C16.3826 9.42974 16.6927 9.73986 16.6927 10.1224L16.6927 15.3073L21.8775 15.3073Z" fill="#B4B4A6"/>
<path d="M22.5702 16L22.2845 16L22.5702 16ZM21.8775 15.3073L21.8775 15.0216L21.8775 15.0216L21.8775 15.3073ZM21.8775 16.6926L21.8775 16.4069L21.8775 16.4069L21.8775 16.6926ZM16.6927 16.6926V16.4069H16.407V16.6926H16.6927ZM16.6927 21.8775L16.9784 21.8775L16.6927 21.8775ZM16 22.5702L16 22.2845L16 22.2845V22.5702ZM15.3073 21.8775L15.593 21.8775L15.3073 21.8775ZM15.3073 16.6926L15.593 16.6926V16.4069L15.3073 16.4069V16.6926ZM10.1225 16.6926L10.1225 16.4069L10.1225 16.4069L10.1225 16.6926ZM9.42978 16L9.71549 16L9.71549 16L9.42978 16ZM10.1225 15.3073L10.1225 15.0216L10.1225 15.0216L10.1225 15.3073ZM15.3073 15.3073V15.593H15.593V15.3073H15.3073ZM15.3073 10.1224L15.593 10.1224L15.3073 10.1224ZM16 9.42974L16 9.71545L16 9.71545L16 9.42974ZM16.6927 10.1224L16.407 10.1224L16.6927 10.1224ZM16.6927 15.3073L16.407 15.3073V15.593L16.6927 15.593L16.6927 15.3073ZM22.8559 16C22.8559 15.4596 22.4179 15.0216 21.8775 15.0216L21.8775 15.593C22.1023 15.593 22.2845 15.7752 22.2845 16L22.8559 16ZM21.8775 16.9784C22.4179 16.9784 22.8559 16.5403 22.8559 16L22.2845 16C22.2845 16.2247 22.1023 16.4069 21.8775 16.4069L21.8775 16.9784ZM16.6927 16.9783L21.8775 16.9784L21.8775 16.4069L16.6927 16.4069L16.6927 16.9783ZM16.407 16.6926L16.407 21.8775L16.9784 21.8775L16.9784 16.6926L16.407 16.6926ZM16.407 21.8775C16.407 22.1023 16.2248 22.2845 16 22.2845L16 22.8559C16.5404 22.8559 16.9784 22.4179 16.9784 21.8775L16.407 21.8775ZM16 22.2845C15.7752 22.2845 15.593 22.1023 15.593 21.8775L15.0216 21.8775C15.0216 22.4179 15.4597 22.8559 16 22.8559L16 22.2845ZM15.593 21.8775L15.593 16.6926L15.0216 16.6926L15.0216 21.8775L15.593 21.8775ZM10.1225 16.9783L15.3073 16.9783L15.3073 16.4069L10.1225 16.4069L10.1225 16.9783ZM9.14406 16C9.14406 16.5403 9.5821 16.9784 10.1225 16.9783L10.1225 16.4069C9.8977 16.4069 9.71549 16.2247 9.71549 16L9.14406 16ZM10.1225 15.0216C9.5821 15.0216 9.14406 15.4596 9.14406 16L9.71549 16C9.71549 15.7752 9.89769 15.593 10.1225 15.593L10.1225 15.0216ZM15.3073 15.0216L10.1225 15.0216L10.1225 15.593L15.3073 15.593L15.3073 15.0216ZM15.593 15.3073L15.593 10.1224L15.0216 10.1224L15.0216 15.3073L15.593 15.3073ZM15.593 10.1224C15.593 9.89766 15.7752 9.71545 16 9.71545L16 9.14402C15.4597 9.14402 15.0216 9.58206 15.0216 10.1224L15.593 10.1224ZM16 9.71545C16.2248 9.71545 16.407 9.89766 16.407 10.1224L16.9784 10.1224C16.9784 9.58206 16.5404 9.14402 16 9.14402L16 9.71545ZM16.407 10.1224L16.407 15.3073H16.9784L16.9784 10.1224L16.407 10.1224ZM21.8775 15.0216L16.6927 15.0216V15.593L21.8775 15.593L21.8775 15.0216Z" fill="#B4B4A6"/>
</g>
</g>
</g>
</svg>
