<svg width="32" height="32" viewBox="0 0 32 32" fill="none" xmlns="http://www.w3.org/2000/svg">
<g id="ic_clear">
<rect width="32" height="32" rx="16" fill="#EDECE6"/>
<g id="Group 13">
<g id="Union">
<path fill-rule="evenodd" clip-rule="evenodd" d="M22.5702 16C22.5702 15.6174 22.2601 15.3073 21.8775 15.3073L10.1225 15.3073C9.7399 15.3073 9.42978 15.6174 9.42978 16C9.42978 16.3825 9.7399 16.6926 10.1225 16.6926L21.8775 16.6926C22.2601 16.6926 22.5702 16.3825 22.5702 16Z" fill="#B4B4A6"/>
<path d="M21.8775 15.593C22.1023 15.593 22.2845 15.7752 22.2845 16L22.8559 16C22.8559 15.4596 22.4179 15.0216 21.8775 15.0216L21.8775 15.593ZM10.1225 15.593L21.8775 15.593L21.8775 15.0216L10.1225 15.0216L10.1225 15.593ZM9.71549 16C9.71549 15.7752 9.89769 15.593 10.1225 15.593L10.1225 15.0216C9.5821 15.0216 9.14406 15.4596 9.14406 16L9.71549 16ZM10.1225 16.4069C9.8977 16.4069 9.71549 16.2247 9.71549 16L9.14406 16C9.14406 16.5403 9.5821 16.9784 10.1225 16.9784L10.1225 16.4069ZM21.8775 16.4069L10.1225 16.4069L10.1225 16.9784L21.8775 16.9784L21.8775 16.4069ZM22.2845 16C22.2845 16.2247 22.1023 16.4069 21.8775 16.4069L21.8775 16.9784C22.4179 16.9784 22.8559 16.5403 22.8559 16L22.2845 16Z" fill="#B4B4A6"/>
</g>
</g>
</g>
</svg>
