<svg width="24" height="24" viewBox="0 0 24 24" fill="none" xmlns="http://www.w3.org/2000/svg">
<g id="ic_clear">
<g id="Group 13">
<g id="Union">
<path fill-rule="evenodd" clip-rule="evenodd" d="M17.1429 11.3939C17.4776 11.3939 17.7489 11.6653 17.7489 12C17.7489 12.3347 17.4776 12.6061 17.1429 12.6061L12.6061 12.6061L12.6061 17.1429C12.6061 17.4776 12.3347 17.7489 12 17.7489C11.6653 17.7489 11.3939 17.4776 11.3939 17.1429V12.6061L6.85715 12.6061C6.52241 12.6061 6.25105 12.3347 6.25105 12C6.25105 11.6653 6.52241 11.3939 6.85715 11.3939L11.3939 11.3939L11.3939 6.85715C11.3939 6.52241 11.6653 6.25106 12 6.25106C12.3347 6.25106 12.6061 6.52241 12.6061 6.85715L12.6061 11.3939L17.1429 11.3939Z" fill="#7C7C77"/>
<path d="M17.7489 12L17.4989 12L17.4989 12L17.7489 12ZM17.1429 11.3939L17.1429 11.1439L17.1429 11.1439L17.1429 11.3939ZM17.1429 12.6061L17.1429 12.3561L17.1429 12.6061ZM12.6061 12.6061L12.6061 12.3561H12.3561L12.3561 12.6061H12.6061ZM12.6061 17.1429L12.3561 17.1429L12.6061 17.1429ZM11.3939 17.1429H11.1439H11.3939ZM11.3939 12.6061H11.6439L11.6439 12.3561H11.3939L11.3939 12.6061ZM6.85715 12.6061L6.85715 12.3561L6.85715 12.3561L6.85715 12.6061ZM6.25105 12L6.50105 12L6.25105 12ZM6.85715 11.3939L6.85715 11.6439L6.85715 11.6439L6.85715 11.3939ZM11.3939 11.3939V11.6439L11.6439 11.6439L11.6439 11.3939L11.3939 11.3939ZM11.3939 6.85715L11.1439 6.85715L11.1439 6.85715L11.3939 6.85715ZM12 6.25106L12 6.00106H12L12 6.25106ZM12.6061 6.85715L12.8561 6.85715L12.8561 6.85715L12.6061 6.85715ZM12.6061 11.3939L12.3561 11.3939L12.3561 11.6439L12.6061 11.6439L12.6061 11.3939ZM17.9989 12C17.9989 11.5272 17.6157 11.1439 17.1429 11.1439L17.1429 11.6439C17.3395 11.6439 17.4989 11.8033 17.4989 12L17.9989 12ZM17.1429 12.8561C17.6157 12.8561 17.9989 12.4728 17.9989 12L17.4989 12C17.4989 12.1967 17.3395 12.3561 17.1429 12.3561L17.1429 12.8561ZM12.6061 12.8561L17.1429 12.8561L17.1429 12.3561L12.6061 12.3561V12.8561ZM12.3561 12.6061L12.3561 17.1429L12.8561 17.1429V12.6061H12.3561ZM12.3561 17.1429C12.3561 17.3395 12.1967 17.4989 12 17.4989L12 17.9989C12.4728 17.9989 12.8561 17.6157 12.8561 17.1429L12.3561 17.1429ZM12 17.4989C11.8033 17.4989 11.6439 17.3395 11.6439 17.1429L11.1439 17.1429C11.1439 17.6157 11.5272 17.9989 12 17.9989L12 17.4989ZM11.6439 17.1429L11.6439 12.6061H11.1439V17.1429L11.6439 17.1429ZM6.85715 12.8561L11.3939 12.8561V12.3561L6.85715 12.3561L6.85715 12.8561ZM6.00105 12C6.00105 12.4728 6.38434 12.8561 6.85715 12.8561L6.85715 12.3561C6.66048 12.3561 6.50105 12.1967 6.50105 12L6.00105 12ZM6.85715 11.1439C6.38434 11.1439 6.00105 11.5272 6.00105 12L6.50105 12C6.50105 11.8033 6.66048 11.6439 6.85715 11.6439L6.85715 11.1439ZM11.3939 11.1439L6.85715 11.1439L6.85715 11.6439L11.3939 11.6439L11.3939 11.1439ZM11.6439 11.3939L11.6439 6.85715L11.1439 6.85715L11.1439 11.3939L11.6439 11.3939ZM11.6439 6.85715C11.6439 6.66048 11.8033 6.50106 12 6.50106L12 6.00106C11.5272 6.00106 11.1439 6.38434 11.1439 6.85715L11.6439 6.85715ZM12 6.50106C12.1967 6.50106 12.3561 6.66048 12.3561 6.85715L12.8561 6.85715C12.8561 6.38434 12.4728 6.00106 12 6.00106L12 6.50106ZM12.3561 6.85715L12.3561 11.3939L12.8561 11.3939L12.8561 6.85715L12.3561 6.85715ZM17.1429 11.1439L12.6061 11.1439L12.6061 11.6439L17.1429 11.6439L17.1429 11.1439Z" fill="#7C7C77"/>
</g>
</g>
</g>
</svg>
